<svg width="11" height="12" viewBox="0 0 11 12" fill="none" xmlns="http://www.w3.org/2000/svg">
<path d="M4.8938 8.82446L2.11647 9.82599L2.92477 6.52984L4.8938 8.82446Z" fill="white"/>
<path d="M9.88503 4.41793L7.45142 1.98431L2.76901 6.66672L5.20263 9.10033L9.88503 4.41793Z" fill="white"/>
<mask id="path-3-outside-1_3086_64" maskUnits="userSpaceOnUse" x="0.0219727" y="0" width="11" height="12" fill="black">
<rect fill="white" x="0.0219727" width="11" height="12"/>
<path d="M9.41124 3.7346C9.16935 3.65073 8.84772 3.68711 8.65682 3.89108L9.41124 3.7346ZM9.41124 3.7346L9.3573 3.63644C9.38006 3.5319 9.46176 3.46898 9.46126 3.35813M9.41124 3.7346L8.65682 3.89108L8.60629 3.9452L8.57295 3.98092L8.53961 3.9452L7.18671 2.49598L7.15336 2.46027L7.18671 2.42455L7.22534 2.38316C7.73086 1.84386 8.58707 1.84248 9.07942 2.37099C9.32552 2.63464 9.46126 2.98549 9.46126 3.35813M6.61502 1.67853L6.61608 1.67743C7.02983 1.24047 7.57674 1 8.15831 1C8.74566 1 9.29796 1.24617 9.71371 1.69049C10.1294 2.1347 10.3582 2.72677 10.3582 3.35654C10.3582 3.56922 10.323 3.77516 10.2708 3.97718L10.2669 3.99225L10.2716 4.00704C10.4142 4.45308 10.3229 4.96536 9.99161 5.31978L7.76238 7.70772C7.5301 7.95603 7.22645 8.08056 6.9224 8.08139L6.88785 8.07652L6.8648 8.07327L6.84837 8.09088L5.77982 9.23497C5.59929 9.42835 5.33885 9.60754 5.0447 9.73712C4.8125 9.83966 2.1463 10.7863 1.61108 10.9755C1.56428 10.9914 1.51668 11 1.47009 11C1.35269 11 1.2379 10.9501 1.15319 10.8593C1.03352 10.7311 0.991407 10.541 1.04471 10.3692C1.05786 10.3267 1.07489 10.2717 1.09517 10.2062C1.34868 9.38716 2.11213 6.92064 2.20078 6.69026C2.32278 6.37457 2.49006 6.09562 2.66958 5.90332L2.67028 5.90255L2.67243 5.90027L2.68086 5.89124L2.71375 5.856L2.83861 5.72227L3.28437 5.24485L4.63793 3.79523L5.99399 2.34312L6.44288 1.8626L6.56976 1.72687C6.60006 1.69448 6.61502 1.67853 6.61502 1.67853ZM4.54378 8.91185L4.6144 8.8852L4.56145 8.82849L3.05003 7.20947L2.99679 7.15244L2.97214 7.22865C2.9027 7.44328 2.77877 7.83621 2.62969 8.31054L2.62036 8.34022L2.64103 8.36238L3.48517 9.26661L3.50579 9.2887L3.53345 9.27881C3.97581 9.12068 4.34224 8.98789 4.54378 8.91185ZM2.53185 8.85343L2.47789 8.79563L2.45378 8.87319L2.20658 9.66811L2.17679 9.7639L2.26622 9.73199L3.0083 9.4672L3.08071 9.44137L3.02675 9.38356L2.53185 8.85343ZM6.34535 7.27294L6.37243 7.24392L6.35147 7.20957C6.17323 6.9177 6.19125 6.53222 6.42805 6.27906L8.25606 4.32091L8.28939 4.28519L8.25606 4.24948L6.90315 2.80025L6.86981 2.76454L6.83646 2.80025L3.30386 6.58435L3.29983 6.58927L3.21066 6.71345L3.18541 6.74861L3.2147 6.77997L4.96341 8.65265L4.99263 8.68393L5.02543 8.65702L5.14184 8.56151L5.14651 8.55712L6.34535 7.27294ZM6.71073 7.02946C6.76838 7.09059 6.8439 7.12163 6.91935 7.12163C6.99431 7.12163 7.07007 7.09207 7.12813 7.02928L9.3573 4.64142C9.47288 4.5176 9.47226 4.31787 9.35672 4.19472C9.24177 4.07223 9.05445 4.0721 8.93988 4.19481L6.71064 6.58277C6.59567 6.70592 6.59555 6.90672 6.71073 7.02946Z"/>
</mask>
<path d="M9.41124 3.7346C9.16935 3.65073 8.84772 3.68711 8.65682 3.89108L9.41124 3.7346ZM9.41124 3.7346L9.3573 3.63644C9.38006 3.5319 9.46176 3.46898 9.46126 3.35813M9.41124 3.7346L8.65682 3.89108L8.60629 3.9452L8.57295 3.98092L8.53961 3.9452L7.18671 2.49598L7.15336 2.46027L7.18671 2.42455L7.22534 2.38316C7.73086 1.84386 8.58707 1.84248 9.07942 2.37099C9.32552 2.63464 9.46126 2.98549 9.46126 3.35813M6.61502 1.67853L6.61608 1.67743C7.02983 1.24047 7.57674 1 8.15831 1C8.74566 1 9.29796 1.24617 9.71371 1.69049C10.1294 2.1347 10.3582 2.72677 10.3582 3.35654C10.3582 3.56922 10.323 3.77516 10.2708 3.97718L10.2669 3.99225L10.2716 4.00704C10.4142 4.45308 10.3229 4.96536 9.99161 5.31978L7.76238 7.70772C7.5301 7.95603 7.22645 8.08056 6.9224 8.08139L6.88785 8.07652L6.8648 8.07327L6.84837 8.09088L5.77982 9.23497C5.59929 9.42835 5.33885 9.60754 5.0447 9.73712C4.8125 9.83966 2.1463 10.7863 1.61108 10.9755C1.56428 10.9914 1.51668 11 1.47009 11C1.35269 11 1.2379 10.9501 1.15319 10.8593C1.03352 10.7311 0.991407 10.541 1.04471 10.3692C1.05786 10.3267 1.07489 10.2717 1.09517 10.2062C1.34868 9.38716 2.11213 6.92064 2.20078 6.69026C2.32278 6.37457 2.49006 6.09562 2.66958 5.90332L2.67028 5.90255L2.67243 5.90027L2.68086 5.89124L2.71375 5.856L2.83861 5.72227L3.28437 5.24485L4.63793 3.79523L5.99399 2.34312L6.44288 1.8626L6.56976 1.72687C6.60006 1.69448 6.61502 1.67853 6.61502 1.67853ZM4.54378 8.91185L4.6144 8.8852L4.56145 8.82849L3.05003 7.20947L2.99679 7.15244L2.97214 7.22865C2.9027 7.44328 2.77877 7.83621 2.62969 8.31054L2.62036 8.34022L2.64103 8.36238L3.48517 9.26661L3.50579 9.2887L3.53345 9.27881C3.97581 9.12068 4.34224 8.98789 4.54378 8.91185ZM2.53185 8.85343L2.47789 8.79563L2.45378 8.87319L2.20658 9.66811L2.17679 9.7639L2.26622 9.73199L3.0083 9.4672L3.08071 9.44137L3.02675 9.38356L2.53185 8.85343ZM6.34535 7.27294L6.37243 7.24392L6.35147 7.20957C6.17323 6.9177 6.19125 6.53222 6.42805 6.27906L8.25606 4.32091L8.28939 4.28519L8.25606 4.24948L6.90315 2.80025L6.86981 2.76454L6.83646 2.80025L3.30386 6.58435L3.29983 6.58927L3.21066 6.71345L3.18541 6.74861L3.2147 6.77997L4.96341 8.65265L4.99263 8.68393L5.02543 8.65702L5.14184 8.56151L5.14651 8.55712L6.34535 7.27294ZM6.71073 7.02946C6.76838 7.09059 6.8439 7.12163 6.91935 7.12163C6.99431 7.12163 7.07007 7.09207 7.12813 7.02928L9.3573 4.64142C9.47288 4.5176 9.47226 4.31787 9.35672 4.19472C9.24177 4.07223 9.05445 4.0721 8.93988 4.19481L6.71064 6.58277C6.59567 6.70592 6.59555 6.90672 6.71073 7.02946Z" fill="black"/>
<path d="M9.4417 3.88147C9.52282 3.86465 9.57493 3.78525 9.55811 3.70414C9.54128 3.62302 9.46189 3.5709 9.38077 3.58773L9.4417 3.88147ZM8.62635 3.7442C8.54524 3.76103 8.49312 3.84043 8.50994 3.92154C8.52677 4.00266 8.60617 4.05478 8.68728 4.03795L8.62635 3.7442ZM2.55993 6.00568C2.61646 6.06623 2.71138 6.0695 2.77194 6.01297C2.83249 5.95643 2.83576 5.86151 2.77922 5.80096L2.55993 6.00568ZM2.74588 5.76524C2.68935 5.70468 2.59443 5.70142 2.53387 5.75795C2.47331 5.81448 2.47005 5.9094 2.52658 5.96996L2.74588 5.76524ZM8.29902 4.42327C8.35555 4.36271 8.35229 4.26779 8.29173 4.21126C8.23118 4.15473 8.13626 4.15799 8.07973 4.21855L8.29902 4.42327ZM6.28509 6.14095C6.22856 6.20151 6.23182 6.29643 6.29238 6.35296C6.35293 6.40949 6.44785 6.40623 6.50438 6.34567L6.28509 6.14095ZM8.68728 4.03795L9.4417 3.88147L9.38077 3.58773L8.62635 3.7442L8.68728 4.03795ZM2.77922 5.80096L2.74588 5.76524L2.52658 5.96996L2.55993 6.00568L2.77922 5.80096ZM8.07973 4.21855L6.28509 6.14095L6.50438 6.34567L8.29902 4.42327L8.07973 4.21855ZM9.41124 3.7346L9.31296 4.01805L10.0496 4.27346L9.67416 3.59014L9.41124 3.7346ZM8.65682 3.89108L8.43779 3.68608L8.43753 3.68636L8.65682 3.89108ZM9.3573 3.63644L9.06417 3.57263L9.04027 3.68242L9.09438 3.7809L9.3573 3.63644ZM9.46126 3.35813L9.16126 3.35813L9.16127 3.35948L9.46126 3.35813ZM8.60629 3.9452L8.387 3.74048L8.38699 3.74049L8.60629 3.9452ZM8.57295 3.98092L8.35369 4.18566L8.57298 4.42051L8.79225 4.18563L8.57295 3.98092ZM8.53961 3.9452L8.32031 4.14992L8.32034 4.14995L8.53961 3.9452ZM7.18671 2.49598L7.406 2.29126L7.40597 2.29123L7.18671 2.49598ZM7.15336 2.46027L6.93406 2.25555L6.74293 2.4603L6.93409 2.66502L7.15336 2.46027ZM7.18671 2.42455L7.406 2.62927L7.406 2.62927L7.18671 2.42455ZM7.22534 2.38316L7.00646 2.17799L7.00605 2.17844L7.22534 2.38316ZM9.07942 2.37099L8.85991 2.57548L8.86012 2.57569L9.07942 2.37099ZM6.61502 1.67853L6.40008 1.46916L6.39618 1.47331L6.61502 1.67853ZM6.61608 1.67743L6.831 1.88679L6.83392 1.8837L6.61608 1.67743ZM9.71371 1.69049L9.49465 1.89546L9.49466 1.89546L9.71371 1.69049ZM10.2708 3.97718L9.98033 3.90205L9.98032 3.9021L10.2708 3.97718ZM10.2669 3.99225L9.97643 3.91717L9.95475 4.00103L9.98111 4.08354L10.2669 3.99225ZM10.2716 4.00704L9.98583 4.09833L9.98586 4.09841L10.2716 4.00704ZM9.99161 5.31978L9.77246 5.11491L9.77232 5.11506L9.99161 5.31978ZM7.76238 7.70772L7.98146 7.91266L7.98167 7.91244L7.76238 7.70772ZM6.9224 8.08139L6.88054 8.37846L6.90178 8.38145L6.92322 8.38139L6.9224 8.08139ZM6.88785 8.07652L6.84593 8.37358L6.84599 8.37359L6.88785 8.07652ZM6.8648 8.07327L6.90672 7.77621L6.75208 7.75439L6.64551 7.86855L6.8648 8.07327ZM6.84837 8.09088L7.06761 8.29565L7.06766 8.2956L6.84837 8.09088ZM5.77982 9.23497L5.56057 9.03019L5.56052 9.03025L5.77982 9.23497ZM5.0447 9.73712L4.92375 9.46258L4.92352 9.46269L5.0447 9.73712ZM1.61108 10.9755L1.70792 11.2594L1.71107 11.2583L1.61108 10.9755ZM1.15319 10.8593L1.37258 10.6547L1.37246 10.6545L1.15319 10.8593ZM1.04471 10.3692L1.33124 10.4581L1.33128 10.4579L1.04471 10.3692ZM1.09517 10.2062L0.808585 10.1175L0.808584 10.1175L1.09517 10.2062ZM2.20078 6.69026L1.92095 6.58213L1.9208 6.58251L2.20078 6.69026ZM2.66958 5.90332L2.88888 6.10804L2.89022 6.10659L2.66958 5.90332ZM2.67028 5.90255L2.45143 5.69734L2.44965 5.69928L2.67028 5.90255ZM2.67243 5.90027L2.89127 6.10547L2.89172 6.10499L2.67243 5.90027ZM2.68086 5.89124L2.46156 5.68652L2.46156 5.68652L2.68086 5.89124ZM2.71375 5.856L2.49447 5.65126L2.49446 5.65128L2.71375 5.856ZM2.83861 5.72227L3.05789 5.92701L3.05789 5.92701L2.83861 5.72227ZM3.28437 5.24485L3.06509 5.04011L3.06509 5.04012L3.28437 5.24485ZM4.63793 3.79523L4.41867 3.59047L4.41865 3.59049L4.63793 3.79523ZM5.99399 2.34312L5.77477 2.13832L5.77473 2.13836L5.99399 2.34312ZM6.44288 1.8626L6.22372 1.65773L6.22365 1.6578L6.44288 1.8626ZM6.56976 1.72687L6.35068 1.52192L6.3506 1.522L6.56976 1.72687ZM4.54378 8.91185L4.64968 9.19254L4.6497 9.19253L4.54378 8.91185ZM4.6144 8.8852L4.72032 9.16588L5.13924 9.00779L4.83369 8.68048L4.6144 8.8852ZM4.56145 8.82849L4.34216 9.03321L4.34216 9.03321L4.56145 8.82849ZM3.05003 7.20947L3.26933 7.00475L3.26933 7.00475L3.05003 7.20947ZM2.99679 7.15244L3.21608 6.94772L2.86824 6.57511L2.71135 7.0601L2.99679 7.15244ZM2.97214 7.22865L3.25757 7.32099L3.25758 7.32098L2.97214 7.22865ZM2.62969 8.31054L2.34349 8.22059L2.34348 8.22061L2.62969 8.31054ZM2.62036 8.34022L2.33416 8.25029L2.28175 8.41707L2.40102 8.54489L2.62036 8.34022ZM2.64103 8.36238L2.42169 8.56705L2.42174 8.5671L2.64103 8.36238ZM3.48517 9.26661L3.26588 9.47133L3.26588 9.47134L3.48517 9.26661ZM3.50579 9.2887L3.2865 9.49342L3.42108 9.63758L3.60678 9.57119L3.50579 9.2887ZM3.53345 9.27881L3.43247 8.99631L3.43245 8.99632L3.53345 9.27881ZM2.53185 8.85343L2.31256 9.05815L2.31256 9.05815L2.53185 8.85343ZM2.47789 8.79563L2.69719 8.59091L2.34475 8.21338L2.19142 8.70657L2.47789 8.79563ZM2.45378 8.87319L2.74025 8.96228L2.74025 8.96226L2.45378 8.87319ZM2.20658 9.66811L2.49305 9.7572L2.49305 9.75719L2.20658 9.66811ZM2.17679 9.7639L1.89033 9.67482L1.71198 10.2483L2.27761 10.0465L2.17679 9.7639ZM2.26622 9.73199L2.36704 10.0145L2.36704 10.0145L2.26622 9.73199ZM3.0083 9.4672L2.90751 9.18464L2.90748 9.18465L3.0083 9.4672ZM3.08071 9.44137L3.18151 9.72393L3.61165 9.57048L3.30001 9.23665L3.08071 9.44137ZM3.02675 9.38356L3.24605 9.17885L3.24604 9.17884L3.02675 9.38356ZM6.34535 7.27294L6.56464 7.47766L6.56468 7.47763L6.34535 7.27294ZM6.37243 7.24392L6.59176 7.4486L6.74718 7.28206L6.6285 7.08762L6.37243 7.24392ZM6.35147 7.20957L6.60754 7.05327L6.6075 7.05322L6.35147 7.20957ZM6.42805 6.27906L6.64714 6.48399L6.64734 6.48378L6.42805 6.27906ZM8.25606 4.32091L8.47535 4.52563L8.47538 4.52559L8.25606 4.32091ZM8.28939 4.28519L8.50872 4.48987L8.69977 4.28516L8.50869 4.08047L8.28939 4.28519ZM8.25606 4.24948L8.47535 4.04476L8.47535 4.04476L8.25606 4.24948ZM6.90315 2.80025L7.12244 2.59553L7.12244 2.59553L6.90315 2.80025ZM6.86981 2.76454L7.0891 2.55982L6.86984 2.32494L6.65054 2.55979L6.86981 2.76454ZM6.83646 2.80025L6.6172 2.5955L6.61717 2.59553L6.83646 2.80025ZM3.30386 6.58435L3.08456 6.37963L3.0779 6.38677L3.07171 6.39433L3.30386 6.58435ZM3.29983 6.58927L3.06769 6.39925L3.06168 6.40658L3.05616 6.41428L3.29983 6.58927ZM3.21066 6.71345L2.96698 6.53845L2.96696 6.53849L3.21066 6.71345ZM3.18541 6.74861L2.94171 6.57365L2.79819 6.77356L2.96618 6.9534L3.18541 6.74861ZM3.2147 6.77997L3.43397 6.57522L3.43393 6.57518L3.2147 6.77997ZM4.96341 8.65265L4.74415 8.8574L4.74415 8.8574L4.96341 8.65265ZM4.99263 8.68393L4.77337 8.88869L4.9654 9.09433L5.18292 8.91586L4.99263 8.68393ZM5.02543 8.65702L5.21572 8.88895L5.21572 8.88895L5.02543 8.65702ZM5.14184 8.56151L5.33213 8.79343L5.3399 8.78706L5.34722 8.78018L5.14184 8.56151ZM5.14651 8.55712L5.35189 8.7758L5.35907 8.76905L5.3658 8.76184L5.14651 8.55712ZM6.71073 7.02946L6.49195 7.23474L6.49248 7.2353L6.71073 7.02946ZM7.12813 7.02928L6.90884 6.82456L6.90788 6.82559L7.12813 7.02928ZM9.3573 4.64142L9.5766 4.84614L9.5766 4.84613L9.3573 4.64142ZM9.35672 4.19472L9.57549 3.98945L9.57548 3.98944L9.35672 4.19472ZM8.93988 4.19481L8.72059 3.99009L8.72058 3.9901L8.93988 4.19481ZM6.71064 6.58277L6.92994 6.78749L6.92994 6.78749L6.71064 6.58277ZM9.50951 3.45115C9.1864 3.33912 8.7298 3.37408 8.43779 3.68608L8.87585 4.09608C8.96565 4.00014 9.15231 3.96234 9.31296 4.01805L9.50951 3.45115ZM9.67416 3.59014L9.62023 3.49197L9.09438 3.7809L9.14831 3.87906L9.67416 3.59014ZM9.65044 3.70025C9.65029 3.70091 9.64717 3.70617 9.68152 3.64303C9.70959 3.59144 9.76187 3.49176 9.76126 3.35678L9.16127 3.35948C9.16116 3.33535 9.17283 3.32255 9.15449 3.35627C9.14859 3.36711 9.12822 3.4028 9.11339 3.43331C9.09604 3.46902 9.07653 3.51583 9.06417 3.57263L9.65044 3.70025ZM8.43753 3.68636L8.387 3.74048L8.82558 4.14993L8.87611 4.0958L8.43753 3.68636ZM8.38699 3.74049L8.35366 3.7762L8.79225 4.18563L8.82558 4.14992L8.38699 3.74049ZM8.79222 3.77617L8.75887 3.74046L8.32034 4.14995L8.35369 4.18566L8.79222 3.77617ZM8.7589 3.74049L7.406 2.29126L6.96741 2.7007L8.32031 4.14992L8.7589 3.74049ZM7.40597 2.29123L7.37263 2.25552L6.93409 2.66502L6.96744 2.70073L7.40597 2.29123ZM7.37265 2.66499L7.406 2.62927L6.96741 2.21983L6.93406 2.25555L7.37265 2.66499ZM7.406 2.62927L7.44464 2.58788L7.00605 2.17844L6.96741 2.21983L7.406 2.62927ZM7.44422 2.58832C7.83359 2.17293 8.48855 2.17684 8.85991 2.57548L9.29893 2.1665C8.68559 1.50812 7.62813 1.51478 7.00647 2.17799L7.44422 2.58832ZM8.86012 2.57569C9.0525 2.7818 9.16126 3.05872 9.16126 3.35813H9.76126C9.76126 2.91226 9.59854 2.48747 9.29873 2.16628L8.86012 2.57569ZM6.82991 1.88786L6.83098 1.88677L6.40119 1.4681L6.40012 1.46919L6.82991 1.88786ZM6.83392 1.8837C7.19332 1.50413 7.66244 1.3 8.15831 1.3V0.7C7.49104 0.7 6.86634 0.976797 6.39824 1.47117L6.83392 1.8837ZM8.15831 1.3C8.65881 1.3 9.13295 1.5089 9.49465 1.89546L9.93277 1.48552C9.46296 0.983429 8.83252 0.7 8.15831 0.7V1.3ZM9.49466 1.89546C9.85625 2.28189 10.0582 2.79982 10.0582 3.35654H10.6582C10.6582 2.65372 10.4025 1.98751 9.93277 1.48551L9.49466 1.89546ZM10.0582 3.35654C10.0582 3.53621 10.0285 3.71583 9.98033 3.90205L10.5612 4.0523C10.6176 3.83448 10.6582 3.60223 10.6582 3.35654H10.0582ZM9.98032 3.9021L9.97643 3.91717L10.5573 4.06733L10.5612 4.05225L9.98032 3.9021ZM9.98111 4.08354L9.98583 4.09833L10.5574 3.91575L10.5527 3.90096L9.98111 4.08354ZM9.98586 4.09841C10.0983 4.45011 10.0232 4.84668 9.77246 5.11491L10.2108 5.52465C10.6227 5.08404 10.7301 4.45605 10.5574 3.91567L9.98586 4.09841ZM9.77232 5.11506L7.54308 7.503L7.98167 7.91244L10.2109 5.5245L9.77232 5.11506ZM7.54329 7.50278C7.36751 7.69069 7.14283 7.78079 6.92159 7.78139L6.92322 8.38139C7.31007 8.38034 7.69269 8.22137 7.98146 7.91266L7.54329 7.50278ZM6.96427 7.78433L6.92972 7.77946L6.84599 8.37359L6.88054 8.37846L6.96427 7.78433ZM6.92977 7.77947L6.90672 7.77621L6.82288 8.37033L6.84593 8.37358L6.92977 7.77947ZM6.64551 7.86855L6.62907 7.88616L7.06766 8.2956L7.0841 8.27799L6.64551 7.86855ZM6.62912 7.88611L5.56057 9.03019L5.99906 9.43974L7.06761 8.29565L6.62912 7.88611ZM5.56052 9.03025C5.4123 9.18902 5.18743 9.34642 4.92375 9.46258L5.16565 10.0117C5.49028 9.86865 5.78627 9.66767 5.99911 9.43968L5.56052 9.03025ZM4.92352 9.46269C4.70515 9.55911 2.0576 10.4994 1.5111 10.6926L1.71107 11.2583C2.235 11.0731 4.91985 10.1202 5.16589 10.0116L4.92352 9.46269ZM1.51425 10.6915C1.49484 10.6981 1.47997 10.7 1.47009 10.7V11.3C1.55339 11.3 1.63372 11.2847 1.70791 11.2594L1.51425 10.6915ZM1.47009 10.7C1.43836 10.7 1.40226 10.6865 1.37258 10.6547L0.93381 11.0639C1.07354 11.2137 1.26702 11.3 1.47009 11.3V10.7ZM1.37246 10.6545C1.32858 10.6075 1.30884 10.5302 1.33124 10.4581L0.758192 10.2803C0.673972 10.5517 0.738454 10.8547 0.933929 11.064L1.37246 10.6545ZM1.33128 10.4579C1.34444 10.4155 1.36148 10.3604 1.38176 10.2949L0.808584 10.1175C0.788295 10.183 0.771283 10.238 0.758151 10.2804L1.33128 10.4579ZM1.38176 10.2949C1.63862 9.465 2.39692 7.01588 2.48077 6.79801L1.9208 6.58251C1.82733 6.8254 1.05873 9.30932 0.808585 10.1175L1.38176 10.2949ZM2.48062 6.7984C2.59218 6.50969 2.74125 6.26617 2.88887 6.10804L2.45028 5.6986C2.23886 5.92507 2.05337 6.23944 1.92095 6.58213L2.48062 6.7984ZM2.89022 6.10659L2.89092 6.10582L2.44965 5.69928L2.44894 5.70005L2.89022 6.10659ZM2.88913 6.10775L2.89127 6.10547L2.45358 5.69507L2.45144 5.69735L2.88913 6.10775ZM2.89172 6.10499L2.90015 6.09595L2.46156 5.68652L2.45313 5.69555L2.89172 6.10499ZM2.90015 6.09596L2.93304 6.06072L2.49446 5.65128L2.46156 5.68652L2.90015 6.09596ZM2.93303 6.06074L3.05789 5.92701L2.61933 5.51754L2.49447 5.65126L2.93303 6.06074ZM3.05789 5.92701L3.50364 5.44959L3.06509 5.04012L2.61933 5.51754L3.05789 5.92701ZM3.50364 5.44959L4.8572 3.99997L4.41865 3.59049L3.06509 5.04011L3.50364 5.44959ZM4.85718 3.99999L6.21325 2.54787L5.77473 2.13836L4.41867 3.59047L4.85718 3.99999ZM6.21322 2.54791L6.6621 2.06739L6.22365 1.6578L5.77477 2.13832L6.21322 2.54791ZM6.66204 2.06746L6.78892 1.93173L6.3506 1.522L6.22372 1.65773L6.66204 2.06746ZM6.78884 1.93181C6.80395 1.91566 6.81522 1.90362 6.82271 1.89563C6.82645 1.89163 6.82924 1.88865 6.8311 1.88667C6.83203 1.88568 6.83272 1.88494 6.83318 1.88446C6.8334 1.88421 6.83357 1.88403 6.83369 1.88391C6.83374 1.88385 6.83378 1.88381 6.83381 1.88378C6.83382 1.88377 6.83383 1.88376 6.83384 1.88375C6.83384 1.88375 6.83384 1.88374 6.83385 1.88374C6.83385 1.88374 6.83385 1.88374 6.83385 1.88374C6.83385 1.88374 6.83385 1.88374 6.83385 1.88374C6.83385 1.88374 6.83385 1.88374 6.61502 1.67853C6.39618 1.47331 6.39618 1.47331 6.39618 1.47331C6.39618 1.47331 6.39618 1.47331 6.39618 1.47331C6.39618 1.47331 6.39618 1.47332 6.39618 1.47332C6.39618 1.47332 6.39617 1.47332 6.39617 1.47333C6.39616 1.47334 6.39615 1.47335 6.39613 1.47337C6.3961 1.4734 6.39605 1.47345 6.39599 1.47352C6.39587 1.47365 6.39569 1.47384 6.39545 1.47409C6.39497 1.4746 6.39426 1.47537 6.39331 1.47638C6.39141 1.4784 6.38858 1.48143 6.38479 1.48547C6.37722 1.49355 6.36587 1.50568 6.35068 1.52192L6.78884 1.93181ZM4.6497 9.19253L4.72032 9.16588L4.50847 8.60453L4.43786 8.63118L4.6497 9.19253ZM4.83369 8.68048L4.78075 8.62377L4.34216 9.03321L4.3951 9.08992L4.83369 8.68048ZM4.78075 8.62377L3.26933 7.00475L2.83074 7.41419L4.34216 9.03321L4.78075 8.62377ZM3.26933 7.00475L3.21608 6.94772L2.7775 7.35716L2.83074 7.41419L3.26933 7.00475ZM2.71135 7.0601L2.6867 7.13631L3.25758 7.32098L3.28223 7.24477L2.71135 7.0601ZM2.6867 7.1363C2.6168 7.35239 2.49245 7.74665 2.34349 8.22059L2.91588 8.4005C3.0651 7.92576 3.18861 7.53417 3.25757 7.32099L2.6867 7.1363ZM2.34348 8.22061L2.33416 8.25029L2.90656 8.43016L2.91589 8.40048L2.34348 8.22061ZM2.40102 8.54489L2.42169 8.56705L2.86037 8.15771L2.8397 8.13555L2.40102 8.54489ZM2.42174 8.5671L3.26588 9.47133L3.70446 9.0619L2.86032 8.15766L2.42174 8.5671ZM3.26588 9.47134L3.2865 9.49342L3.72507 9.08397L3.70446 9.06189L3.26588 9.47134ZM3.60678 9.57119L3.63444 9.5613L3.43245 8.99632L3.40479 9.00621L3.60678 9.57119ZM3.63443 9.5613C4.07666 9.40322 4.44538 9.26962 4.64968 9.19254L4.43788 8.63117C4.2391 8.70616 3.87495 8.83814 3.43247 8.99631L3.63443 9.5613ZM2.75115 8.64872L2.69719 8.59091L2.2586 9.00035L2.31256 9.05815L2.75115 8.64872ZM2.19142 8.70657L2.1673 8.78413L2.74025 8.96226L2.76437 8.88469L2.19142 8.70657ZM2.16731 8.78411L1.92011 9.57903L2.49305 9.75719L2.74025 8.96228L2.16731 8.78411ZM1.92012 9.57902L1.89033 9.67482L2.46326 9.85299L2.49305 9.7572L1.92012 9.57902ZM2.27761 10.0465L2.36704 10.0145L2.1654 9.44944L2.07597 9.48135L2.27761 10.0465ZM2.36704 10.0145L3.10913 9.74975L2.90748 9.18465L2.1654 9.44944L2.36704 10.0145ZM3.1091 9.74976L3.18151 9.72393L2.97991 9.15881L2.90751 9.18464L3.1091 9.74976ZM3.30001 9.23665L3.24605 9.17885L2.80746 9.58828L2.86142 9.64609L3.30001 9.23665ZM3.24604 9.17884L2.75115 8.64871L2.31256 9.05815L2.80746 9.58828L3.24604 9.17884ZM6.56468 7.47763L6.59176 7.4486L6.15311 7.03924L6.12602 7.06826L6.56468 7.47763ZM6.6285 7.08762L6.60754 7.05327L6.0954 7.36587L6.11637 7.40022L6.6285 7.08762ZM6.6075 7.05322C6.49148 6.86322 6.51257 6.62786 6.64714 6.48399L6.20895 6.07413C5.86993 6.43657 5.85499 6.97218 6.09543 7.36592L6.6075 7.05322ZM6.64734 6.48378L8.47535 4.52563L8.03676 4.11619L6.20875 6.07434L6.64734 6.48378ZM8.47538 4.52559L8.50872 4.48987L8.07007 4.0805L8.03673 4.11622L8.47538 4.52559ZM8.50869 4.08047L8.47535 4.04476L8.03676 4.45419L8.0701 4.4899L8.50869 4.08047ZM8.47535 4.04476L7.12244 2.59553L6.68385 3.00497L8.03676 4.4542L8.47535 4.04476ZM7.12244 2.59553L7.0891 2.55982L6.65052 2.96926L6.68385 3.00497L7.12244 2.59553ZM6.65054 2.55979L6.6172 2.5955L7.05573 3.005L7.08908 2.96929L6.65054 2.55979ZM6.61717 2.59553L3.08456 6.37963L3.52315 6.78907L7.05576 3.00497L6.61717 2.59553ZM3.07171 6.39433L3.06769 6.39925L3.53198 6.77929L3.536 6.77437L3.07171 6.39433ZM3.05616 6.41428L2.96698 6.53845L3.45433 6.88844L3.54351 6.76427L3.05616 6.41428ZM2.96696 6.53849L2.94171 6.57365L3.42911 6.92357L3.45436 6.8884L2.96696 6.53849ZM2.96618 6.9534L2.99547 6.98476L3.43393 6.57518L3.40464 6.54382L2.96618 6.9534ZM2.99544 6.98472L4.74415 8.8574L5.18268 8.4479L3.43397 6.57522L2.99544 6.98472ZM4.74415 8.8574L4.77337 8.88869L5.21189 8.47918L5.18267 8.44789L4.74415 8.8574ZM5.18292 8.91586L5.21572 8.88895L4.83514 8.4251L4.80234 8.45201L5.18292 8.91586ZM5.21572 8.88895L5.33213 8.79343L4.95155 8.32958L4.83513 8.4251L5.21572 8.88895ZM5.34722 8.78018L5.35189 8.7758L4.94112 8.33845L4.93646 8.34283L5.34722 8.78018ZM5.3658 8.76184L6.56464 7.47766L6.12606 7.06822L4.92721 8.3524L5.3658 8.76184ZM6.49248 7.2353C6.60626 7.35595 6.7605 7.42163 6.91935 7.42163V6.82163C6.92286 6.82163 6.92572 6.82237 6.92771 6.82323C6.92984 6.82416 6.93012 6.82485 6.92898 6.82363L6.49248 7.2353ZM6.91935 7.42163C7.07469 7.42163 7.23136 7.35951 7.34838 7.23298L6.90788 6.82559C6.90747 6.82604 6.90881 6.82459 6.91192 6.82325C6.91474 6.82205 6.91736 6.82163 6.91935 6.82163V7.42163ZM7.34743 7.234L9.5766 4.84614L9.13801 4.4367L6.90884 6.82456L7.34743 7.234ZM9.5766 4.84613C9.8002 4.6066 9.79891 4.22757 9.57549 3.98945L9.13794 4.4C9.13991 4.40209 9.14366 4.40797 9.14368 4.41838C9.1437 4.42873 9.14002 4.43455 9.138 4.43671L9.5766 4.84613ZM9.57548 3.98944C9.34236 3.74101 8.95409 3.73999 8.72059 3.99009L9.15916 4.39954C9.15969 4.39897 9.15878 4.40007 9.15621 4.40118C9.15382 4.40221 9.15103 4.40281 9.14814 4.40281C9.14525 4.40281 9.14257 4.40221 9.14037 4.40126C9.138 4.40024 9.13727 4.39928 9.13795 4.40001L9.57548 3.98944ZM8.72058 3.9901L6.49135 6.37805L6.92994 6.78749L9.15917 4.39953L8.72058 3.9901ZM6.49135 6.37805C6.26907 6.61615 6.26818 6.99625 6.49195 7.23474L6.9295 6.82419C6.9284 6.82301 6.92438 6.81748 6.92438 6.80629C6.92438 6.79507 6.92844 6.78909 6.92994 6.78749L6.49135 6.37805Z" fill="white" mask="url(#path-3-outside-1_3086_64)"/>
</svg>
